<svg width="97" height="135" viewBox="0 0 97 135" fill="none" xmlns="http://www.w3.org/2000/svg">
<g filter="url(#filter0_dddd_1_143)">
<mask id="path-1-inside-1_1_143" fill="white">
<path d="M16.063 18.3704C16.063 10.6793 22.2978 4.44446 29.9889 4.44446H52.2704C59.9615 4.44446 66.1963 10.6793 66.1963 18.3704V40.6519C66.1963 48.3429 59.9615 54.5778 52.2704 54.5778H29.9889C22.2978 54.5778 16.063 48.3429 16.063 40.6519V18.3704Z"/>
</mask>
<path d="M16.063 18.3704C16.063 10.6793 22.2978 4.44446 29.9889 4.44446H52.2704C59.9615 4.44446 66.1963 10.6793 66.1963 18.3704V40.6519C66.1963 48.3429 59.9615 54.5778 52.2704 54.5778H29.9889C22.2978 54.5778 16.063 48.3429 16.063 40.6519V18.3704Z" fill="#EDFBD0"/>
<path d="M29.9889 5.4889H52.2704V3.40001H29.9889V5.4889ZM65.1519 18.3704V40.6519H67.2408V18.3704H65.1519ZM52.2704 53.5333H29.9889V55.6222H52.2704V53.5333ZM17.1074 40.6519V18.3704H15.0185V40.6519H17.1074ZM29.9889 53.5333C22.8747 53.5333 17.1074 47.7661 17.1074 40.6519H15.0185C15.0185 48.9198 21.721 55.6222 29.9889 55.6222V53.5333ZM65.1519 40.6519C65.1519 47.7661 59.3846 53.5333 52.2704 53.5333V55.6222C60.5383 55.6222 67.2408 48.9198 67.2408 40.6519H65.1519ZM52.2704 5.4889C59.3846 5.4889 65.1519 11.2561 65.1519 18.3704H67.2408C67.2408 10.1025 60.5383 3.40001 52.2704 3.40001V5.4889ZM29.9889 3.40001C21.721 3.40001 15.0185 10.1025 15.0185 18.3704H17.1074C17.1074 11.2561 22.8747 5.4889 29.9889 5.4889V3.40001Z" fill="#006241" fill-opacity="0.48" mask="url(#path-1-inside-1_1_143)"/>
<path d="M46.5253 26.0296H45.5679V24.1148C45.5679 21.4724 43.4233 19.3278 40.7809 19.3278C38.1384 19.3278 35.9938 21.4724 35.9938 24.1148V26.0296H35.0364C33.9833 26.0296 33.1216 26.8913 33.1216 27.9444V37.5185C33.1216 38.5716 33.9833 39.4333 35.0364 39.4333H46.5253C47.5785 39.4333 48.4401 38.5716 48.4401 37.5185V27.9444C48.4401 26.8913 47.5785 26.0296 46.5253 26.0296ZM37.9086 24.1148C37.9086 22.5255 39.1916 21.2426 40.7809 21.2426C42.3702 21.2426 43.6531 22.5255 43.6531 24.1148V26.0296H37.9086V24.1148ZM46.5253 37.5185H35.0364V27.9444H46.5253V37.5185ZM40.7809 34.6463C41.834 34.6463 42.6957 33.7846 42.6957 32.7315C42.6957 31.6783 41.834 30.8166 40.7809 30.8166C39.7277 30.8166 38.8661 31.6783 38.8661 32.7315C38.8661 33.7846 39.7277 34.6463 40.7809 34.6463Z" fill="#006241"/>
</g>
<defs>
<filter id="filter0_dddd_1_143" x="0.0481734" y="0.26668" width="96.0889" height="134.385" filterUnits="userSpaceOnUse" color-interpolation-filters="sRGB">
<feFlood flood-opacity="0" result="BackgroundImageFix"/>
<feColorMatrix in="SourceAlpha" type="matrix" values="0 0 0 0 0 0 0 0 0 0 0 0 0 0 0 0 0 0 127 0" result="hardAlpha"/>
<feOffset dx="0.696296" dy="3.48148"/>
<feGaussianBlur stdDeviation="3.82963"/>
<feColorMatrix type="matrix" values="0 0 0 0 0 0 0 0 0 0 0 0 0 0 0 0 0 0 0.08 0"/>
<feBlend mode="normal" in2="BackgroundImageFix" result="effect1_dropShadow_1_143"/>
<feColorMatrix in="SourceAlpha" type="matrix" values="0 0 0 0 0 0 0 0 0 0 0 0 0 0 0 0 0 0 127 0" result="hardAlpha"/>
<feOffset dx="1.39259" dy="13.9259"/>
<feGaussianBlur stdDeviation="7.31111"/>
<feColorMatrix type="matrix" values="0 0 0 0 0 0 0 0 0 0 0 0 0 0 0 0 0 0 0.06 0"/>
<feBlend mode="normal" in2="effect1_dropShadow_1_143" result="effect2_dropShadow_1_143"/>
<feColorMatrix in="SourceAlpha" type="matrix" values="0 0 0 0 0 0 0 0 0 0 0 0 0 0 0 0 0 0 127 0" result="hardAlpha"/>
<feOffset dx="3.48148" dy="32.0296"/>
<feGaussianBlur stdDeviation="9.74815"/>
<feColorMatrix type="matrix" values="0 0 0 0 0 0 0 0 0 0 0 0 0 0 0 0 0 0 0.04 0"/>
<feBlend mode="normal" in2="effect2_dropShadow_1_143" result="effect3_dropShadow_1_143"/>
<feColorMatrix in="SourceAlpha" type="matrix" values="0 0 0 0 0 0 0 0 0 0 0 0 0 0 0 0 0 0 127 0" result="hardAlpha"/>
<feOffset dx="6.96296" dy="57.0963"/>
<feGaussianBlur stdDeviation="11.4889"/>
<feColorMatrix type="matrix" values="0 0 0 0 0 0 0 0 0 0 0 0 0 0 0 0 0 0 0.01 0"/>
<feBlend mode="normal" in2="effect3_dropShadow_1_143" result="effect4_dropShadow_1_143"/>
<feBlend mode="normal" in="SourceGraphic" in2="effect4_dropShadow_1_143" result="shape"/>
</filter>
</defs>
</svg>
