<svg width="102" height="129" viewBox="0 0 102 129" fill="none" xmlns="http://www.w3.org/2000/svg">
<g filter="url(#filter0_dddd_1_128)">
<mask id="path-1-inside-1_1_128" fill="white">
<path d="M17.2105 19.6592C17.2105 11.5793 23.7606 5.0293 31.8405 5.0293H55.2484C63.3283 5.0293 69.8783 11.5793 69.8783 19.6592V43.0672C69.8783 51.1471 63.3283 57.6971 55.2484 57.6971H31.8405C23.7606 57.6971 17.2105 51.1471 17.2105 43.0672V19.6592Z"/>
</mask>
<path d="M17.2105 19.6592C17.2105 11.5793 23.7606 5.0293 31.8405 5.0293H55.2484C63.3283 5.0293 69.8783 11.5793 69.8783 19.6592V43.0672C69.8783 51.1471 63.3283 57.6971 55.2484 57.6971H31.8405C23.7606 57.6971 17.2105 51.1471 17.2105 43.0672V19.6592Z" fill="#EDFACF"/>
<path d="M31.8405 6.12654H55.2484V3.93205H31.8405V6.12654ZM68.7811 19.6592V43.0672H70.9756V19.6592H68.7811ZM55.2484 56.5999H31.8405V58.7944H55.2484V56.5999ZM18.3078 43.0672V19.6592H16.1133V43.0672H18.3078ZM31.8405 56.5999C24.3665 56.5999 18.3078 50.5411 18.3078 43.0672H16.1133C16.1133 51.7531 23.1546 58.7944 31.8405 58.7944V56.5999ZM68.7811 43.0672C68.7811 50.5411 62.7223 56.5999 55.2484 56.5999V58.7944C63.9343 58.7944 70.9756 51.7531 70.9756 43.0672H68.7811ZM55.2484 6.12654C62.7223 6.12654 68.7811 12.1853 68.7811 19.6592H70.9756C70.9756 10.9734 63.9343 3.93205 55.2484 3.93205V6.12654ZM31.8405 3.93205C23.1546 3.93205 16.1133 10.9733 16.1133 19.6592H18.3078C18.3078 12.1853 24.3666 6.12654 31.8405 6.12654V3.93205Z" fill="#006241" fill-opacity="0.48" mask="url(#path-1-inside-1_1_128)"/>
<path d="M34.6291 38.2566L40.6639 32.2117L44.6872 36.235L53.2365 26.6194L51.8184 25.2012L44.6872 33.2175L40.6639 29.1943L33.1204 36.7479L34.6291 38.2566Z" fill="#006241"/>
</g>
<defs>
<filter id="filter0_dddd_1_128" x="0.386069" y="0.640312" width="100.947" height="141.179" filterUnits="userSpaceOnUse" color-interpolation-filters="sRGB">
<feFlood flood-opacity="0" result="BackgroundImageFix"/>
<feColorMatrix in="SourceAlpha" type="matrix" values="0 0 0 0 0 0 0 0 0 0 0 0 0 0 0 0 0 0 127 0" result="hardAlpha"/>
<feOffset dx="0.731497" dy="3.65749"/>
<feGaussianBlur stdDeviation="4.02324"/>
<feColorMatrix type="matrix" values="0 0 0 0 0 0 0 0 0 0 0 0 0 0 0 0 0 0 0.08 0"/>
<feBlend mode="normal" in2="BackgroundImageFix" result="effect1_dropShadow_1_128"/>
<feColorMatrix in="SourceAlpha" type="matrix" values="0 0 0 0 0 0 0 0 0 0 0 0 0 0 0 0 0 0 127 0" result="hardAlpha"/>
<feOffset dx="1.46299" dy="14.6299"/>
<feGaussianBlur stdDeviation="7.68072"/>
<feColorMatrix type="matrix" values="0 0 0 0 0 0 0 0 0 0 0 0 0 0 0 0 0 0 0.06 0"/>
<feBlend mode="normal" in2="effect1_dropShadow_1_128" result="effect2_dropShadow_1_128"/>
<feColorMatrix in="SourceAlpha" type="matrix" values="0 0 0 0 0 0 0 0 0 0 0 0 0 0 0 0 0 0 127 0" result="hardAlpha"/>
<feOffset dx="3.65749" dy="33.6489"/>
<feGaussianBlur stdDeviation="10.241"/>
<feColorMatrix type="matrix" values="0 0 0 0 0 0 0 0 0 0 0 0 0 0 0 0 0 0 0.04 0"/>
<feBlend mode="normal" in2="effect2_dropShadow_1_128" result="effect3_dropShadow_1_128"/>
<feColorMatrix in="SourceAlpha" type="matrix" values="0 0 0 0 0 0 0 0 0 0 0 0 0 0 0 0 0 0 127 0" result="hardAlpha"/>
<feOffset dx="7.31497" dy="59.9828"/>
<feGaussianBlur stdDeviation="12.0697"/>
<feColorMatrix type="matrix" values="0 0 0 0 0 0 0 0 0 0 0 0 0 0 0 0 0 0 0.01 0"/>
<feBlend mode="normal" in2="effect3_dropShadow_1_128" result="effect4_dropShadow_1_128"/>
<feBlend mode="normal" in="SourceGraphic" in2="effect4_dropShadow_1_128" result="shape"/>
</filter>
</defs>
</svg>
